<?xml version="1.0" encoding="UTF-8" standalone="no"?>
<svg width="80px" height="80px" viewBox="0 0 80 80" version="1.1" xmlns="http://www.w3.org/2000/svg" xmlns:xlink="http://www.w3.org/1999/xlink" xmlns:sketch="http://www.bohemiancoding.com/sketch/ns">
    <!-- Generator: Sketch 3.3.3 (12081) - http://www.bohemiancoding.com/sketch -->
    <title>association</title>
    <desc>Created with Sketch.</desc>
    <defs></defs>
    <g id="images" stroke="none" stroke-width="1" fill="none" fill-rule="evenodd" sketch:type="MSPage">
        <g id="association" sketch:type="MSArtboardGroup" fill="#DADADA">
            <path d="M58.9111111,46.9888889 C62.6933333,46.9888889 66.0644444,47.5644444 68.7777778,48.14 C72.8066667,49.0444444 75.3555556,50.2777778 75.3555556,50.2777778 L75.3555556,70.0111111 L72.0666667,70.0111111 L72.0666667,58.1711111 C72.0666667,58.1711111 70.8333333,57.5955556 68.7777778,57.1022222 C67.0511111,56.6911111 64.7488889,56.1977778 62.2,56.1977778 C56.6088889,56.1977778 52.3333333,58.1711111 52.3333333,58.1711111 L52.3333333,70.0111111 L42.4666667,70.0111111 L42.4666667,50.2777778 C42.4666667,50.2777778 49.62,46.9888889 58.9111111,46.9888889 L58.9111111,46.9888889 Z M77,76.5888889 L77,72.4777778 L3,72.4777778 L3,76.5888889 L77,76.5888889 L77,76.5888889 Z M35.8888889,19.0333333 L35.8888889,70.0111111 L40.8222222,70.0111111 L40.8222222,48.6333333 L40.8222222,47.5644444 L41.8088889,47.1533333 C42.0555556,46.9888889 49.3733333,43.7 58.9111111,43.7 C62.6111111,43.7 65.9822222,44.1933333 68.7777778,44.8511111 L68.7777778,19.0333333 L58.9933333,19.0333333 L61.6244444,27.2555556 C61.8711111,27.9133333 61.6244444,28.6533333 61.0488889,29.0644444 C60.72,29.3111111 60.3911111,29.3933333 60.0622222,29.3933333 C59.7333333,29.3933333 59.4044444,29.3111111 59.0755556,29.0644444 L52.0866667,23.9666667 L45.0155556,29.0644444 C44.6866667,29.3111111 44.3577778,29.3933333 44.0288889,29.3933333 C43.7,29.3933333 43.3711111,29.3111111 43.0422222,29.0644444 C42.4666667,28.6533333 42.22,27.9133333 42.4666667,27.2555556 L45.0977778,19.0333333 L35.8888889,19.0333333 L35.8888889,19.0333333 Z M46.9066667,19.3622222 L44.1111111,28.0777778 L52.0866667,22.24 L60.0622222,28.0777778 L57.2666667,19.3622222 L57.02,18.7044444 L64.9955556,12.8666667 L55.1288889,12.8666667 L52.0866667,3.41111111 L49.0444444,12.7844444 L39.1777778,12.7844444 L47.1533333,18.6222222 L46.9066667,19.3622222 L46.9066667,19.3622222 Z M4.64444444,16.5666667 L34.2444444,16.5666667 L35.8888889,14.9222222 L3,14.9222222 L4.64444444,16.5666667 L4.64444444,16.5666667 Z M3,14.0177778 L35.8888889,14.0177778 L35.8888889,12.3733333 L3,12.3733333 L3,14.0177778 L3,14.0177778 Z M34.2444444,17.3888889 L34.2444444,70.0111111 L4.64444444,70.0111111 L4.64444444,17.3888889 L34.2444444,17.3888889 L34.2444444,17.3888889 Z M25.2,66.7222222 L30.1333333,66.7222222 L30.1333333,60.1444444 L25.2,60.1444444 L25.2,66.7222222 L25.2,66.7222222 Z M25.2,56.8555556 L30.1333333,56.8555556 L30.1333333,30.5444444 L25.2,30.5444444 L25.2,56.8555556 L25.2,56.8555556 Z M25.2,27.2555556 L30.1333333,27.2555556 L30.1333333,20.6777778 L25.2,20.6777778 L25.2,27.2555556 L25.2,27.2555556 Z M16.9777778,66.7222222 L21.9111111,66.7222222 L21.9111111,60.1444444 L16.9777778,60.1444444 L16.9777778,66.7222222 L16.9777778,66.7222222 Z M16.9777778,56.8555556 L21.9111111,56.8555556 L21.9111111,30.5444444 L16.9777778,30.5444444 L16.9777778,56.8555556 L16.9777778,56.8555556 Z M16.9777778,27.2555556 L21.9111111,27.2555556 L21.9111111,20.6777778 L16.9777778,20.6777778 L16.9777778,27.2555556 L16.9777778,27.2555556 Z M8.75555556,66.7222222 L13.6888889,66.7222222 L13.6888889,60.1444444 L8.75555556,60.1444444 L8.75555556,66.7222222 L8.75555556,66.7222222 Z M8.75555556,56.8555556 L13.6888889,56.8555556 L13.6888889,30.5444444 L8.75555556,30.5444444 L8.75555556,56.8555556 L8.75555556,56.8555556 Z M8.75555556,27.2555556 L13.6888889,27.2555556 L13.6888889,20.6777778 L8.75555556,20.6777778 L8.75555556,27.2555556 L8.75555556,27.2555556 Z" id="Shape" sketch:type="MSShapeGroup"></path>
        </g>
    </g>
</svg>