<?xml version="1.0" encoding="UTF-8" standalone="no"?>
<svg width="80px" height="80px" viewBox="0 0 80 80" version="1.1" xmlns="http://www.w3.org/2000/svg" xmlns:xlink="http://www.w3.org/1999/xlink" xmlns:sketch="http://www.bohemiancoding.com/sketch/ns">
    <!-- Generator: Sketch 3.3.3 (12081) - http://www.bohemiancoding.com/sketch -->
    <title>business</title>
    <desc>Created with Sketch.</desc>
    <defs></defs>
    <g id="images" stroke="none" stroke-width="1" fill="none" fill-rule="evenodd" sketch:type="MSPage">
        <g id="business" sketch:type="MSArtboardGroup" fill="#DADADA">
            <path d="M68.4884368,50.3177422 L68.4002763,19.8319885 L68.3210059,19.8319885 L39.8392367,3.38746171 L11.5404561,19.8319885 L11.4619266,19.8319885 L11.5975012,50.2836634 L11.8138278,52.3839577 L11.8138278,52.4202591 L11.5967603,50.2206916 L3,55.1554572 L40.1089042,76.6125383 L77,55.1873135 L68.4884368,50.3177422 L68.4884368,50.3177422 Z M18.4925415,53.8182328 L13.7489138,51.0793304 L13.7644715,45.6244919 L18.5080992,48.3633943 L18.4925415,53.8182328 L18.4925415,53.8182328 Z M18.523657,42.91226 L13.7800292,40.1733576 L13.795587,34.7222233 L18.5392147,37.4611257 L18.523657,42.91226 L18.523657,42.91226 Z M18.5547724,32.0062872 L13.8111447,29.2673848 L13.8267024,23.8162505 L18.5703302,26.5551529 L18.5547724,32.0062872 L18.5547724,32.0062872 Z M66.1125483,51.0763671 L61.3681797,53.8137877 L61.3533628,48.3633943 L66.0962497,45.6244919 L66.1125483,51.0763671 L66.1125483,51.0763671 Z M66.080692,40.1740985 L61.3378051,42.9130008 L61.3222474,37.4581623 L66.0666159,34.71926 L66.080692,40.1740985 L66.080692,40.1740985 Z M66.0347596,23.8162505 L66.0503174,29.2673848 L61.3074305,32.0062872 L61.2918727,26.5551529 L66.0347596,23.8162505 L66.0347596,23.8162505 Z M56.5897323,45.6541257 L51.8453637,48.3915464 L51.8305468,42.9367078 L56.5734337,40.1978055 L56.5897323,45.6541257 L56.5897323,45.6541257 Z M42.3551449,53.8715736 L42.340328,48.4167351 L47.0861782,45.676351 L47.101736,51.1311896 L42.3551449,53.8715736 L42.3551449,53.8715736 Z M47.1180346,56.581583 L47.1328515,62.0319765 L42.3870012,64.7738422 L42.3714434,59.321967 L47.1180346,56.581583 L47.1180346,56.581583 Z M42.3247702,42.9663416 L42.3092125,37.5152073 L47.0565445,34.7740825 L47.0721022,40.2252167 L42.3247702,42.9663416 L42.3247702,42.9663416 Z M56.5437999,29.2962778 L56.5593577,34.747412 L51.8149891,37.4863144 L51.7994314,32.0359209 L56.5437999,29.2962778 L56.5437999,29.2962778 Z M32.8049176,34.7740825 L37.5522496,37.5144665 L37.5366918,42.9656008 L32.7893599,40.2244759 L32.8049176,34.7740825 L32.8049176,34.7740825 Z M32.7738021,45.6807961 L37.5211341,48.4211801 L37.5055764,53.8715736 L32.7582444,51.1311896 L32.7738021,45.6807961 L32.7738021,45.6807961 Z M32.7426867,56.581583 L37.4907595,59.321967 L37.4752017,64.7782872 L32.7278698,62.0364215 L32.7426867,56.581583 L32.7426867,56.581583 Z M23.3176621,29.2962778 L28.0612899,32.0351801 L28.0457321,37.4863144 L23.3021044,34.747412 L23.3176621,29.2962778 L23.3176621,29.2962778 Z M23.2865467,40.2022506 L28.0301744,42.9411529 L28.0146167,48.3915464 L23.2702481,45.6541257 L23.2865467,40.2022506 L23.2865467,40.2022506 Z M27.9886871,53.9108384 L27.9909096,53.8760187 L27.9775744,59.2715896 L23.2391326,56.5260197 L23.2361692,56.5193521 L23.3102537,51.0630319 L28.1124081,53.8011934 L28.1124081,53.8419398 L28.0449913,53.9108384 L27.9886871,53.9108384 L27.9886871,53.9108384 Z M51.8846285,62.0223455 L51.8616623,53.8441623 L56.6060309,51.10526 L56.6289971,59.2834431 L51.8846285,62.0223455 L51.8846285,62.0223455 Z" id="Shape" sketch:type="MSShapeGroup"></path>
        </g>
    </g>
</svg>