<?xml version="1.0" encoding="UTF-8" standalone="no"?>
<svg width="80px" height="80px" viewBox="0 0 80 80" version="1.1" xmlns="http://www.w3.org/2000/svg" xmlns:xlink="http://www.w3.org/1999/xlink" xmlns:sketch="http://www.bohemiancoding.com/sketch/ns">
    <!-- Generator: Sketch 3.3.3 (12081) - http://www.bohemiancoding.com/sketch -->
    <title>contact</title>
    <desc>Created with Sketch.</desc>
    <defs></defs>
    <g id="images" stroke="none" stroke-width="1" fill="none" fill-rule="evenodd" sketch:type="MSPage">
        <g id="contact" sketch:type="MSArtboardGroup" fill="#D9D9D9">
            <path d="M74.2504889,62.1469449 C74.2373333,58.9945449 72.0263778,58.9189005 69.3845778,57.8623449 L57.0512444,52.9224338 C56.8366444,52.8385672 56.6253333,52.7489449 56.4164889,52.6560338 L56.4164889,52.6511005 C54.2236222,51.6586783 52.2881111,50.2773449 51.5785333,49.3063005 L51.5505778,49.2750561 L51.5423556,49.2594338 C51.5020667,49.1969449 51.4584889,49.1328116 51.4206667,49.0711449 L51.3927111,49.0201672 L51.3877778,49.0070116 L51.3622889,48.9757672 L51.3622889,48.9741227 C51.0334,48.4799672 50.7012222,48.2587894 50.4208444,48.3541672 L50.4035778,48.3615672 L50.3953556,48.3640338 L50.3928889,48.3656783 L50.3772667,48.3722561 L50.3665778,48.3747227 L50.3509556,48.3887005 C50.0171333,48.5621894 50.0837333,48.3722561 49.9480667,48.0047227 C49.6142444,47.1035672 49.0633556,45.3867672 48.9803111,45.1343449 C48.8520444,44.6640338 48.5075333,45.8768116 48.5864667,44.5686561 L48.7270667,42.2014783 C48.954,41.9572783 49.1373556,41.7583005 49.2623333,41.6209894 C50.0656444,40.7017449 50.1215556,38.2745449 50.5244444,37.6825449 C50.9273333,37.0897227 51.7339333,36.9622783 52.5388889,34.2070116 C53.3446667,31.4492783 54.3272222,27.5116561 53.2912222,27.4475227 C53.0363333,27.4302561 52.7485556,27.5955227 52.4500889,27.8578116 C52.6318,26.8456561 53.0157778,24.5491894 53.1029333,22.8545894 C53.2180444,20.6222561 52.8480444,14.8971227 51.5785333,12.7996338 C50.7850889,11.4881894 49.1834,10.1890783 47.5874667,9.1761005 C46.6312222,8.56601161 45.6774444,8.06198939 44.8971556,7.71994494 C42.5727333,6.68887827 35.2442667,7.16247827 32.7628,7.71994494 C29.9351778,8.35305605 27.9536222,10.1274116 26.6874,12.2257227 C25.4228222,14.3265005 24.8612444,20.6230783 24.9714222,22.8554116 C25.0248667,23.8568783 25.6242667,25.5465449 25.7763778,26.5776116 C25.8627111,27.1153449 25.9424667,27.1194561 26.0098889,27.5042561 C25.9038222,27.4639672 25.8018667,27.4417672 25.7064889,27.4483449 C24.6696667,27.5124783 25.6497556,31.4501005 26.4547111,34.2078338 C27.2621333,36.9631005 28.0646222,37.0905449 28.4691556,37.6833672 C28.8720444,38.2753672 28.9287778,40.7025672 29.7370222,41.6218116 C29.8644667,41.7673449 30.0585111,41.9794783 30.2994222,42.2360116 L30.4531778,44.1665894 L30.7245111,45.2412338 C30.6003556,44.9320783 30.3553333,44.7331005 30.2402222,45.1359894 C29.8932444,46.1900783 29.5462667,47.2449894 29.1992889,48.2990783 C29.1631111,48.2472783 29.1063778,48.2135672 29.0414222,48.2094561 C28.7051333,47.9126338 28.2537333,48.1708116 27.8426222,48.8557227 C27.2333556,49.8711672 25.2164444,51.3314338 22.8772222,52.3879894 L22.8443333,52.5146116 L22.8114444,52.6395894 L22.7991111,52.6897449 C22.6141111,52.7719672 22.4299333,52.8500783 22.2416444,52.9240783 L9.90748889,57.8639894 C7.26897778,58.9205449 5.05555556,58.9961894 5.04157778,62.1485894 L3,72.8884561 L77,72.8884561 L74.2504889,62.1469449 L74.2504889,62.1469449 Z" id="Shape" sketch:type="MSShapeGroup"></path>
        </g>
    </g>
</svg>