<?xml version="1.0" encoding="UTF-8" standalone="no"?>
<svg width="80px" height="80px" viewBox="0 0 80 80" version="1.1" xmlns="http://www.w3.org/2000/svg" xmlns:xlink="http://www.w3.org/1999/xlink" xmlns:sketch="http://www.bohemiancoding.com/sketch/ns">
    <!-- Generator: Sketch 3.3.3 (12081) - http://www.bohemiancoding.com/sketch -->
    <title>donation</title>
    <desc>Created with Sketch.</desc>
    <defs></defs>
    <g id="images" stroke="none" stroke-width="1" fill="none" fill-rule="evenodd" sketch:type="MSPage">
        <g id="donation" sketch:type="MSArtboardGroup" fill="#DADADA">
            <g id="Group" sketch:type="MSLayerGroup" transform="translate(3.000000, 10.065574)">
                <path d="M51.483377,38.0562295 L51.483377,27.7944918 C51.1594754,27.9012459 50.8428525,27.9885902 50.5407869,28.050459 C50.3891475,28.082 50.2108197,28.1317377 50.034918,28.1802623 L50.034918,36.6077705 L3.68908197,36.6077705 L3.68908197,17.7802295 L24.557082,17.7802295 C24.7718033,17.2707213 25.0132131,16.7842623 25.2898033,16.3317705 L2.24062295,16.3317705 L2.24062295,38.0562295 L6.36278689,38.0562295 L0,40.4230164 L7.57104918,60.7851475 L53.7252131,43.6244262 L51.6544262,38.0562295 L51.483377,38.0562295 L51.483377,38.0562295 Z M31.1345902,38.0562295 C31.5385574,38.6615738 31.9061311,39.3142295 32.1778689,40.0469508 C33.6190492,43.9204262 32.4059344,47.945541 29.4701967,49.0373443 C26.5332459,50.1291475 22.9848852,47.8739672 21.5461311,44.0004918 C20.762459,41.8920984 20.7867213,39.7570164 21.4236066,38.0562295 L31.1345902,38.0562295 L31.1345902,38.0562295 Z M8.42265574,58.9230164 L1.86091803,41.2758361 L10.518918,38.0562295 L14.6750492,38.0562295 L3.72304918,42.1286557 L9.2742623,57.0608852 L49.9997377,41.92 L48.5634098,38.0574426 L50.1077049,38.0574426 L51.8606557,42.7728197 L8.42265574,58.9230164 L8.42265574,58.9230164 Z M10.9059016,50.0163279 C9.90629508,50.3887541 8.79386885,49.880459 8.42265574,48.8796393 C8.05022951,47.8800328 8.5597377,46.7663934 9.56055738,46.3939672 C10.5601639,46.021541 11.6725902,46.5322623 12.0450164,47.5318689 C12.4162295,48.5314754 11.9067213,49.6451148 10.9059016,50.0163279 L10.9059016,50.0163279 Z" id="Shape" sketch:type="MSShapeGroup"></path>
                <path d="M24.0342295,19.2286885 L5.13754098,19.2286885 L5.13754098,35.1593115 L36.6457705,35.1593115 C35.6000656,35.0282951 34.674459,34.5272787 34.0157377,33.6696066 C33.2284262,32.6469508 33.1653443,31.6885902 33.2502623,31.0638361 C33.458918,29.5328852 34.6914426,28.4325902 35.7432131,27.6452787 C37.6199016,26.2368525 42.2879672,22.4082623 43.7218689,20.8773115 C43.2414754,20.4248197 42.3413443,19.783082 41.3732787,19.2286885 L32.7346885,19.2286885 C32.0941639,19.8061311 31.577377,20.5606885 31.196459,21.5032787 C31.1188197,21.6985902 31.048459,21.8793443 30.974459,22.0649508 C31.9352459,23.4054426 32.5345246,25.2032787 32.5345246,27.1952131 C32.5345246,31.3282951 29.9954754,34.6777049 26.8632131,34.6777049 C23.7297377,34.6777049 21.1906885,31.3282951 21.1906885,27.1952131 C21.1906885,24.6864918 22.1344918,22.4774098 23.5708197,21.1199344 C23.6933443,20.4818361 23.8461967,19.8485902 24.0342295,19.2286885 L24.0342295,19.2286885 Z M9.12140984,29.1252787 C8.05508197,29.1252787 7.19013115,28.2603279 7.19013115,27.194 C7.19013115,26.126459 8.05508197,25.2615082 9.12140984,25.2615082 C10.1889508,25.2615082 11.0539016,26.126459 11.0539016,27.194 C11.0526885,28.2603279 10.1877377,29.1252787 9.12140984,29.1252787 L9.12140984,29.1252787 Z" id="Shape" sketch:type="MSShapeGroup"></path>
                <path d="M39.9236066,34.244623 C39.6773443,34.4399344 39.5196393,34.5612459 39.4662623,34.5976393 C39.1217377,34.826918 38.5394426,35.0574098 37.8746557,35.1605246 L48.5876721,35.1605246 L48.5876721,28.6921967 C46.6758033,29.4867869 43.8989836,31.0783934 39.9236066,34.244623 L39.9236066,34.244623 Z" id="Shape" sketch:type="MSShapeGroup"></path>
                <path d="M46.5690492,7.09390164 C37.8795082,7.33531148 30.7585246,12.404918 27.2586885,15.9047541 C23.7576393,19.4045902 24.2428852,28.4762623 24.7244918,28.4568525 C27.7415082,28.335541 27.38,26.6468852 29.6727869,20.9743607 C31.9667869,15.3018361 37.7594098,16.2674754 39.8107869,16.9917049 C41.8621639,17.7159344 45.362,20.0087213 45.2419016,20.9743607 C45.1218033,21.94 37.8795082,27.732623 36.4310492,28.8195738 C34.9825902,29.9053115 33.775541,31.2336721 34.9825902,32.8022295 C36.1896393,34.3707869 38.1197049,33.6465574 38.4824262,33.4063607 C38.8439344,33.1649508 45.3607869,27.6137377 50.0688852,26.6468852 C54.7757705,25.6812459 63.3452131,17.753541 63.3452131,17.753541 L55.8627213,7.69803279 C55.8615082,7.69803279 55.2585902,6.85370492 46.5690492,7.09390164 L46.5690492,7.09390164 Z" id="Shape" sketch:type="MSShapeGroup"></path>
                <path d="M72.7890436,14.5713618 L67.1839546,18.5629063 L56.9207874,4.15094966 L62.5258764,0.15940519 L72.7890436,14.5713618 L72.7890436,14.5713618 Z" id="Rectangle-path" sketch:type="MSShapeGroup"></path>
            </g>
        </g>
    </g>
</svg>