<?xml version="1.0" encoding="UTF-8" standalone="no"?>
<svg width="80px" height="80px" viewBox="0 0 80 80" version="1.1" xmlns="http://www.w3.org/2000/svg" xmlns:xlink="http://www.w3.org/1999/xlink" xmlns:sketch="http://www.bohemiancoding.com/sketch/ns">
    <!-- Generator: Sketch 3.3.3 (12081) - http://www.bohemiancoding.com/sketch -->
    <title>event</title>
    <desc>Created with Sketch.</desc>
    <defs></defs>
    <g id="images" stroke="none" stroke-width="1" fill="none" fill-rule="evenodd" sketch:type="MSPage">
        <g id="event" sketch:type="MSArtboardGroup" fill="#DADADA">
            <g id="Group" sketch:type="MSLayerGroup" transform="translate(3.000000, 3.393617)">
                <path d="M40.0322286,14.8076058 L59.2540199,34.0293971 L35.2288682,58.0545489 L16.0070768,38.8327575 L40.0322286,14.8076058 L40.0322286,14.8076058 Z" id="Rectangle-path" sketch:type="MSShapeGroup"></path>
                <path d="M73.2875532,26.5510426 L73.3379362,20.141383 C73.3395106,19.9036383 73.2411064,19.6690426 73.0671277,19.4942766 C72.8923617,19.3195106 72.657766,19.2211064 72.4200213,19.2234681 L66.9353617,19.2675532 L66.9786596,13.7828936 C66.980234,13.5451489 66.8818298,13.3105532 66.7078511,13.1357872 C66.5330851,12.9610213 66.2984894,12.862617 66.0607447,12.8649787 L60.5760851,12.9082766 L60.6201702,7.42361702 C60.6217447,7.18587234 60.5233404,6.9512766 60.3493617,6.77651064 C60.1745957,6.60174468 59.94,6.50334043 59.7022553,6.50570213 L54.2175957,6.549 L54.2608936,1.06434043 C54.2624681,0.826595745 54.1640638,0.592 53.9900851,0.417234043 C53.8153191,0.242468085 53.5807234,0.14406383 53.3429787,0.146425532 L46.9333191,0.196808511 C46.720766,0.199170213 46.5231702,0.280255319 46.3775319,0.425106383 L0.88406383,45.9177872 C0.739212766,46.0626383 0.657340426,46.2610213 0.655765957,46.4735745 L0.604595745,52.883234 C0.602234043,53.1209787 0.700638298,53.3555745 0.875404255,53.5303404 C1.05017021,53.7051064 1.28476596,53.8035106 1.52251064,53.8011489 L7.00717021,53.7578511 L6.96387234,59.2425106 C6.96229787,59.4802553 7.06070213,59.7148511 7.23468085,59.889617 C7.40944681,60.064383 7.64404255,60.1627872 7.88178723,60.1604255 L13.3656596,60.1171277 L13.3223617,65.6017872 C13.32,65.8395319 13.4191915,66.0741277 13.5931702,66.2488936 C13.7679362,66.4236596 14.0025319,66.5220638 14.2402766,66.5197021 L19.7249362,66.4764043 L19.6816383,71.9602766 C19.6792766,72.1980213 19.7784681,72.432617 19.9524468,72.607383 C20.1272128,72.7821489 20.3618085,72.8805532 20.5995532,72.8781915 L27.0092128,72.8278085 C27.2209787,72.826234 27.4193617,72.7451489 27.565,72.5995106 L73.0584681,27.1060426 C73.2041064,26.9611915 73.2859787,26.7628085 73.2875532,26.5510426 L73.2875532,26.5510426 Z M60.928766,34.0888085 L35.2885532,59.7290213 L31.1831277,63.8344468 C30.0699787,64.9475957 28.2766596,64.9657021 27.1855532,63.8745957 L10.1875957,46.8758511 C9.09648936,45.7847447 9.11459574,43.9914255 10.2277447,42.8782766 L14.3331702,38.7728511 L39.973383,13.1326383 L44.1457234,8.96029787 C45.2588723,7.84714894 47.0521915,7.82904255 48.1432979,8.92014894 L65.1420426,25.9188936 C66.2331489,27.01 66.2150426,28.8033191 65.1018936,29.9164681 L60.928766,34.0888085 L60.928766,34.0888085 Z" id="Shape" sketch:type="MSShapeGroup"></path>
                <path d="M15.1999149,39.640383 L11.0944894,43.7458085 C10.4261277,44.4141702 10.3820426,45.4556809 10.9952979,46.0689362 L27.9940426,63.0676809 C28.6072979,63.6809362 29.6488085,63.6360638 30.3171702,62.9677021 L34.4225957,58.8622766 L15.1999149,39.640383 L15.1999149,39.640383 Z M15.2872979,46.9962979 C14.6291702,46.3381702 14.5921702,45.3068936 15.2054255,44.6936383 C15.8186809,44.080383 16.8499574,44.117383 17.5080851,44.7755106 C18.1662128,45.4336383 18.2032128,46.4649149 17.5899574,47.0781702 C16.9767021,47.6914255 15.9454255,47.6544255 15.2872979,46.9962979 L15.2872979,46.9962979 Z M21.0317447,52.7407447 C20.373617,52.082617 20.336617,51.0513404 20.9498723,50.4380851 C21.5631277,49.8248298 22.5944043,49.8618298 23.2525319,50.5199574 C23.9106596,51.1780851 23.9476596,52.2093617 23.3344043,52.822617 C22.7219362,53.4358723 21.6906596,53.3996596 21.0317447,52.7407447 L21.0317447,52.7407447 Z M27.1564255,58.8654255 C26.4982979,58.2072979 26.4612979,57.1760213 27.0745532,56.562766 C27.6878085,55.9495106 28.7190851,55.9865106 29.3772128,56.6446383 C30.0353404,57.302766 30.0723404,58.3340426 29.4590851,58.9472979 C28.8458298,59.5605532 27.8145532,59.5235532 27.1564255,58.8654255 L27.1564255,58.8654255 Z" id="Shape" sketch:type="MSShapeGroup"></path>
                <path d="M64.3335532,26.7265957 L47.3355957,9.72785106 C46.7223404,9.11459574 45.6800426,9.15946809 45.0124681,9.82704255 L40.8401277,13.999383 L60.0620213,33.2212766 L64.2343617,29.0489362 C64.9019362,28.3813617 64.9468085,27.3390638 64.3335532,26.7265957 L64.3335532,26.7265957 Z M45.8792128,16.3138511 C45.2210851,15.6557234 45.1840851,14.6244468 45.7973404,14.0111915 C46.4105957,13.3979362 47.4418723,13.4349362 48.1,14.0930638 C48.7581277,14.7511915 48.7951277,15.7824681 48.1818723,16.3957234 C47.568617,17.0089787 46.5373404,16.9719787 45.8792128,16.3138511 L45.8792128,16.3138511 Z M51.6236596,22.0582979 C50.9655319,21.4001702 50.9285319,20.3688936 51.5417872,19.7556383 C52.1550426,19.142383 53.1863191,19.179383 53.8444468,19.8375106 C54.5025745,20.4956383 54.5395745,21.5269149 53.9263191,22.1401702 C53.3138511,22.7534255 52.2825745,22.7172128 51.6236596,22.0582979 L51.6236596,22.0582979 Z M57.7483404,28.1829787 C57.0902128,27.5248511 57.0532128,26.4935745 57.6664681,25.8803191 C58.2797234,25.2670638 59.311,25.3040638 59.9691277,25.9621915 C60.6272553,26.6203191 60.6642553,27.6515957 60.051,28.2648511 C59.4377447,28.8781064 58.4064681,28.8411064 57.7483404,28.1829787 L57.7483404,28.1829787 Z" id="Shape" sketch:type="MSShapeGroup"></path>
            </g>
        </g>
    </g>
</svg>