<?xml version="1.0" encoding="UTF-8" standalone="no"?>
<svg width="80px" height="80px" viewBox="0 0 80 80" version="1.1" xmlns="http://www.w3.org/2000/svg" xmlns:xlink="http://www.w3.org/1999/xlink" xmlns:sketch="http://www.bohemiancoding.com/sketch/ns">
    <!-- Generator: Sketch 3.3.3 (12081) - http://www.bohemiancoding.com/sketch -->
    <title>family</title>
    <desc>Created with Sketch.</desc>
    <defs></defs>
    <g id="images" stroke="none" stroke-width="1" fill="none" fill-rule="evenodd" sketch:type="MSPage">
        <g id="family" sketch:type="MSArtboardGroup" fill="#DADADA">
            <g id="Group" sketch:type="MSLayerGroup" transform="translate(3.000000, 6.297030)">
                <path d="M72.9090495,25.3277822 L37.3612079,0.444 C36.9853465,0.180970297 36.4856634,0.180970297 36.109802,0.444 L0.570752475,25.3277822 C0.33409901,25.4948317 0.173643564,25.747604 0.123089109,26.0318812 C0.0732673267,26.3168911 0.138475248,26.6099604 0.304059406,26.8466139 L5.14409901,33.7586535 C5.35730693,34.0627129 5.69433663,34.223901 6.03942574,34.223901 C6.25483168,34.223901 6.47316832,34.1608911 6.66366337,34.0268119 L36.7406337,12.9639208 L66.8161386,34.0268119 C67.3128911,34.3726337 67.9913465,34.2517426 68.335703,33.7586535 L73.1764752,26.8466139 C73.3413267,26.6099604 73.4072673,26.3161584 73.3567129,26.0318812 C73.3076238,25.7483366 73.1464356,25.4948317 72.9090495,25.3277822 L72.9090495,25.3277822 Z" id="Shape" sketch:type="MSShapeGroup"></path>
                <path d="M64.0766733,36.3896832 L37.365604,17.6845347 C36.9904752,17.4222376 36.4900594,17.4222376 36.1149307,17.6845347 L9.26172277,36.4893267 C8.97011881,36.6922772 8.79647525,37.0263762 8.79647525,37.3831881 L8.79647525,66.2900792 C8.79647525,66.8908713 9.28516832,67.380297 9.88815842,67.380297 L28.5727921,67.380297 C29.1750495,67.380297 29.6637426,66.8908713 29.6637426,66.2900792 L29.6637426,41.0993069 L43.8189901,41.0993069 L43.8189901,66.2900792 C43.8189901,66.8908713 44.3069505,67.380297 44.9099406,67.380297 L63.4531683,67.380297 C64.0561584,67.380297 64.5419208,66.8908713 64.5419208,66.2900792 L64.5419208,37.2828119 C64.5411881,36.9267327 64.3690099,36.594099 64.0766733,36.3896832 L64.0766733,36.3896832 Z" id="Shape" sketch:type="MSShapeGroup"></path>
                <path d="M54.3738812,8.62209901 L62.7344158,14.4761584 C62.9219802,14.6065743 63.1403168,14.6732475 63.3601188,14.6732475 C63.5330297,14.6732475 63.7074059,14.6322178 63.864198,14.5508911 C64.2232079,14.3633267 64.4510693,13.9896634 64.4510693,13.5830297 L64.4510693,1.22942574 C64.4510693,0.627168317 63.9623762,0.139207921 63.3601188,0.139207921 L54.9981188,0.139207921 C54.3958614,0.139207921 53.907901,0.62790099 53.907901,1.22942574 L53.907901,7.7289703 C53.9071683,8.08358416 54.0800792,8.41768317 54.3738812,8.62209901 L54.3738812,8.62209901 Z" id="Shape" sketch:type="MSShapeGroup"></path>
            </g>
        </g>
    </g>
</svg>