<?xml version="1.0" encoding="UTF-8" standalone="no"?>
<svg width="80px" height="80px" viewBox="0 0 80 80" version="1.1" xmlns="http://www.w3.org/2000/svg" xmlns:xlink="http://www.w3.org/1999/xlink" xmlns:sketch="http://www.bohemiancoding.com/sketch/ns">
    <!-- Generator: Sketch 3.3.3 (12081) - http://www.bohemiancoding.com/sketch -->
    <title>foundation</title>
    <desc>Created with Sketch.</desc>
    <defs></defs>
    <g id="images" stroke="none" stroke-width="1" fill="none" fill-rule="evenodd" sketch:type="MSPage">
        <g id="foundation" sketch:type="MSArtboardGroup" fill="#DADADA">
            <g id="Group" sketch:type="MSLayerGroup" transform="translate(4.000000, 3.521127)">
                <path d="M11.9239437,60.7633803 L5.56619718,60.7633803 C5.04507042,60.7633803 4.73239437,60.3464789 4.73239437,59.9295775 L4.73239437,27.7239437 C4.73239437,27.2028169 5.14929577,26.8901408 5.56619718,26.8901408 L11.9239437,26.8901408 C12.4450704,26.8901408 12.7577465,27.3070423 12.7577465,27.7239437 L12.7577465,59.8253521 C12.8619718,60.3464789 12.4450704,60.7633803 11.9239437,60.7633803 L11.9239437,60.7633803 Z" id="Shape" sketch:type="MSShapeGroup"></path>
                <path d="M30.7887324,60.7633803 L24.4309859,60.7633803 C23.9098592,60.7633803 23.5971831,60.3464789 23.5971831,59.9295775 L23.5971831,27.7239437 C23.5971831,27.2028169 24.0140845,26.8901408 24.4309859,26.8901408 L30.7887324,26.8901408 C31.3098592,26.8901408 31.6225352,27.3070423 31.6225352,27.7239437 L31.6225352,59.8253521 C31.6225352,60.3464789 31.2056338,60.7633803 30.7887324,60.7633803 L30.7887324,60.7633803 Z" id="Shape" sketch:type="MSShapeGroup"></path>
                <path d="M49.5492958,60.7633803 L43.1915493,60.7633803 C42.6704225,60.7633803 42.3577465,60.3464789 42.3577465,59.9295775 L42.3577465,27.7239437 C42.3577465,27.2028169 42.7746479,26.8901408 43.1915493,26.8901408 L49.5492958,26.8901408 C50.0704225,26.8901408 50.3830986,27.3070423 50.3830986,27.7239437 L50.3830986,59.8253521 C50.4873239,60.3464789 50.0704225,60.7633803 49.5492958,60.7633803 L49.5492958,60.7633803 Z" id="Shape" sketch:type="MSShapeGroup"></path>
                <path d="M68.3098592,60.7633803 L61.9521127,60.7633803 C61.4309859,60.7633803 61.1183099,60.3464789 61.1183099,59.9295775 L61.1183099,27.7239437 C61.1183099,27.2028169 61.5352113,26.8901408 61.9521127,26.8901408 L68.3098592,26.8901408 C68.8309859,26.8901408 69.143662,27.3070423 69.143662,27.7239437 L69.143662,59.8253521 C69.2478873,60.3464789 68.8309859,60.7633803 68.3098592,60.7633803 L68.3098592,60.7633803 Z" id="Shape" sketch:type="MSShapeGroup"></path>
                <g sketch:type="MSShapeGroup">
                    <path d="M71.0197183,14.4873239 L71.0197183,13.7577465 C71.0197183,13.5492958 70.915493,13.4450704 70.8112676,13.4450704 L36.7295775,0 L2.23098592,13.4450704 C2.12676056,13.5492958 2.02253521,13.6535211 2.02253521,13.7577465 L2.02253521,14.4873239 C2.02253521,14.6957746 1.81408451,14.9042254 1.6056338,14.9042254 L0.45915493,14.9042254 C0.250704225,14.9042254 0.0422535211,15.1126761 0.0422535211,15.3211268 L0.0422535211,22.9295775 L73,22.9295775 L73,15.3211268 C73,15.1126761 72.7915493,14.9042254 72.5830986,14.9042254 L71.3323944,14.9042254 C71.228169,14.9042254 71.0197183,14.6957746 71.0197183,14.4873239 L71.0197183,14.4873239 Z" id="Shape"></path>
                    <rect id="Rectangle-path" x="0.0422535211" y="65.0366197" width="72.9577465" height="7.92112676"></rect>
                </g>
            </g>
        </g>
    </g>
</svg>