<?xml version="1.0" encoding="UTF-8" standalone="no"?>
<svg width="80px" height="80px" viewBox="0 0 80 80" version="1.1" xmlns="http://www.w3.org/2000/svg" xmlns:xlink="http://www.w3.org/1999/xlink" xmlns:sketch="http://www.bohemiancoding.com/sketch/ns">
    <!-- Generator: Sketch 3.3.3 (12081) - http://www.bohemiancoding.com/sketch -->
    <title>group</title>
    <desc>Created with Sketch.</desc>
    <defs></defs>
    <g id="images" stroke="none" stroke-width="1" fill="none" fill-rule="evenodd" sketch:type="MSPage">
        <g id="group" sketch:type="MSArtboardGroup" fill="#DADADA">
            <g id="noun_61731" sketch:type="MSLayerGroup" transform="translate(3.000000, 18.136364)">
                <path d="M26.9090909,10.0909091 C26.9090909,4.37272727 31.2818182,2.84217094e-14 37,2.84217094e-14 C42.7181818,2.84217094e-14 47.0909091,4.37272727 47.0909091,10.0909091 C47.0909091,15.8090909 42.7181818,20.1818182 37,20.1818182 C31.2818182,20.1818182 26.9090909,15.8090909 26.9090909,10.0909091 L26.9090909,10.0909091 Z M37,26.9090909 C21.5272727,26.9090909 16.8181818,38.0090909 16.8181818,38.0090909 L16.8181818,43.7272727 L57.1818182,43.7272727 L57.1818182,38.0090909 C57.1818182,38.0090909 52.4727273,26.9090909 37,26.9090909 L37,26.9090909 Z" id="Shape" sketch:type="MSShapeGroup"></path>
                <g id="Group" transform="translate(49.090909, 0.000000)" sketch:type="MSShapeGroup">
                    <circle id="Oval" cx="9.77272727" cy="8.40909091" r="8.40909091"></circle>
                    <path d="M0.354545455,26.2363636 C8.09090909,29.9363636 11.1181818,36.3272727 11.1181818,37 L11.1181818,37.3363636 L24.9090909,37.3363636 L24.9090909,32.9636364 C24.9090909,32.6272727 21.2090909,23.5454545 9.77272727,23.5454545 C5.73636364,23.5454545 2.70909091,24.5545455 0.354545455,26.2363636 Z" id="Shape"></path>
                </g>
                <g id="Group" transform="translate(0.000000, 0.000000)" sketch:type="MSShapeGroup">
                    <circle id="Oval" cx="15.1363636" cy="8.40909091" r="8.40909091"></circle>
                    <path d="M15.1363636,23.5454545 C19.1727273,23.5454545 22.2,24.5545455 24.5545455,26.2363636 C16.8181818,29.9363636 13.7909091,36.3272727 13.7909091,37 L13.7909091,37.3363636 L0,37.3363636 L0,32.9636364 C0,32.6272727 3.7,23.5454545 15.1363636,23.5454545 L15.1363636,23.5454545 Z" id="Shape"></path>
                </g>
            </g>
        </g>
    </g>
</svg>