<?xml version="1.0" encoding="UTF-8" standalone="no"?>
<svg width="40px" height="40px" viewBox="0 0 40 40" version="1.1" xmlns="http://www.w3.org/2000/svg" xmlns:xlink="http://www.w3.org/1999/xlink" xmlns:sketch="http://www.bohemiancoding.com/sketch/ns">
    <!-- Generator: Sketch 3.3.2 (12043) - http://www.bohemiancoding.com/sketch -->
    <title>logo_simple</title>
    <desc>Created with Sketch.</desc>
    <defs></defs>
    <g id="images" stroke="none" stroke-width="1" fill="none" fill-rule="evenodd" sketch:type="MSPage">
        <g id="logo_simple" sketch:type="MSArtboardGroup" fill="#C2C2C2">
            <g id="Fill-49-+-Fill-50-+-Fill-51" sketch:type="MSLayerGroup" transform="translate(1.000000, 5.000000)">
                <path d="M2.36426471,20.5581618 C2.43308824,20.3448529 2.48889706,20.0907353 2.43308824,19.8688235 C1.99433824,18.7784559 1.67470588,17.6358088 1.38860294,16.4794853 C1.33345588,16.1463971 1.37492647,15.7634559 1.27808824,15.4632353 L1.21323529,15.3800735 C1.11573529,15.3701471 1.12544118,15.5088971 1.065,15.5644853 C0.954044118,16.3963235 0.800955882,17.2105147 0.671911765,18.0330882 C0.500514706,18.6703676 0.283014706,19.2906618 0.135,19.9425 C0.15375,20.1928676 0.0752205882,20.5025735 0.245955882,20.7198529 C0.482426471,21.1493382 0.980955882,21.2605147 1.43470588,21.2433088 C1.85602941,21.2371324 2.10088235,20.8447059 2.36426471,20.5581618" id="Fill-49" sketch:type="MSShapeGroup"></path>
                <path d="M2.97198529,22.2496324 C2.92235294,21.9467647 2.95985294,21.5986765 2.87205882,21.3269118 L2.81272059,21.2514706 C2.72448529,21.2424265 2.73352941,21.3681618 2.67904412,21.4186765 C2.57823529,22.17375 2.43926471,22.9122794 2.32169118,23.6585294 C2.16683824,24.2371324 1.96963235,24.7998529 1.83529412,25.3905882 C1.85183824,25.6171324 1.78080882,25.8983824 1.93566176,26.0958088 C2.15029412,26.4860294 2.60227941,26.5859559 3.01389706,26.5696324 C3.39595588,26.5645588 3.61852941,26.20875 3.85720588,25.9488971 C3.92029412,25.7567647 3.97080882,25.5253676 3.92029412,25.3233088 C3.52169118,24.3339706 3.23161765,23.2983088 2.97198529,22.2496324" id="Fill-50" sketch:type="MSShapeGroup"></path>
                <path d="M34.1033824,10.6506618 L33.8441912,12.0668382 C33.8505882,12.9324265 33.5556618,14.3688971 33.7945588,14.5905882 C33.9494118,14.5709559 34.5266912,14.8241912 35.02125,14.7924265 C35.0609559,14.7833824 35.3649265,14.8173529 35.4035294,14.8056618 C35.2438235,15.3630882 34.755,15.8883088 34.5390441,16.3919118 C33.9538235,16.5480882 33.3950735,16.5635294 32.7194118,16.6583824 C31.7702206,16.7741912 31.1386765,16.8447794 29.3170588,16.8225 C28.5891176,16.91625 27.4513235,16.6213235 26.7851471,16.4203676 C26.2908088,16.2705882 25.9976471,16.1175 25.4898529,16.0171324 C25.0389706,16.1744118 24.6611029,16.6250735 24.3397059,16.9826471 C23.8824265,17.5113971 23.6106618,18.1248529 23.1813971,18.6831618 C22.7093382,19.2472059 22.3398529,19.8555882 21.8091176,20.3984559 C21.7100735,20.4189706 21.5814706,20.3909559 21.5814706,20.2760294 C21.6108088,19.6905882 21.9811765,19.2472059 22.1523529,18.7184559 C22.4878676,17.5764706 22.93875,16.4816912 23.0459559,15.2386765 C23.0036029,15.1890441 23.0036029,15.0963971 22.9815441,15.0240441 C22.7671324,14.8310294 22.5169853,14.7458824 22.2813971,14.6325 C21.0311029,14.07375 19.7949265,13.4885294 18.5093382,13.0246324 C17.9444118,12.9108088 17.7485294,12.7045588 17.1191912,12.7621324 C17.3411029,12.3891176 17.4317647,12.1586029 17.6459559,11.79375 L17.8332353,11.3706618 C18.6833824,11.4851471 19.1880882,11.8517647 20.0020588,12.0595588 C20.3166176,12.0302206 20.6953676,12.1374265 20.9525735,11.9664706 C21.42375,11.5455882 21.6233824,10.9233088 22.0608088,10.4364706 C22.1457353,10.4444118 22.2172059,10.5372794 22.2463235,10.6089706 C22.3034559,11.3452941 22.2533824,12.1658824 22.3605882,12.9026471 C22.7241176,13.4102206 23.3241176,13.50375 23.8248529,13.7600735 C25.4757353,14.3382353 27.17625,14.8109559 28.8769853,15.2883088 C29.8773529,15.3326471 30.9796324,15.2541176 31.4869853,14.6713235 C31.9226471,13.6281618 32.6647059,12.5600735 32.9569853,11.4520588 C33.5569853,10.0303676 34.2211765,8.16683824 34.5352941,7.28977941 C34.6758088,6.85411765 34.7596324,6.43191176 34.8372794,6.24463235 C34.9147059,6.05757353 35.0393382,6.21860294 35.0393382,6.21860294 C34.8138971,7.63147059 34.4241176,8.88 34.1033824,10.6506618 L34.1033824,10.6506618 Z M24.0399265,12.7316912 C24.3730147,12.4619118 24.5913971,12.4994118 25.0850735,12.2276471 L25.2110294,12.1806618 C25.3034559,12.1586029 25.3888235,12.0668382 25.4607353,12.0094853 C25.8399265,11.1229412 25.5897794,10.0517647 25.5542647,9.07941176 L25.5542647,6.96573529 C25.6191176,6.95757353 25.5469853,6.84375 25.6191176,6.83735294 C25.7329412,6.82963235 25.6257353,6.63705882 25.7256618,6.62161765 C26.1469853,7.95705882 26.5892647,9.35823529 27.2044853,10.6583824 C27.5053676,11.0375735 27.76875,11.6446324 28.3484559,11.6234559 C29.4551471,11.6234559 30.4241912,11.3452941 31.4516912,11.4646324 C31.7170588,11.4968382 32.0124265,11.5036765 32.2579412,11.5559559 C32.1141176,11.9276471 31.9058824,12.5852206 31.6702941,12.9207353 C31.2895588,12.9474265 31.0497794,12.9083824 30.7482353,12.8905147 C30.4034559,12.8810294 30.0410294,12.9311029 29.8266176,13.0603676 C29.5619118,13.4598529 29.1344118,13.8251471 28.7483824,14.0675735 C28.6698529,14.0457353 28.6266176,13.9883824 28.6266176,13.8966176 C28.6338971,13.6239706 28.6758088,13.2668382 28.5908824,12.9952941 C28.2125735,12.7239706 27.6476471,12.9247059 27.17625,12.8894118 C26.8334559,13.0164706 26.4476471,13.0310294 26.1326471,13.2313235 C25.7675735,13.4161765 25.5485294,13.4278676 25.1631618,13.5644118 C24.6847059,13.3085294 24.15,13.1852206 23.6492647,12.9780882 C23.6278676,12.8347059 23.9618382,12.7802206 24.0399265,12.7316912 L24.0399265,12.7316912 Z M37.0669853,12.5369118 C37.1951471,11.8846324 37.2544853,11.2775735 37.2544853,10.6089706 C37.2544853,4.84477941 33.9997059,0.171397059 26.9986765,0.171397059 C23.8764706,0.171397059 20.7633088,1.64051471 18.8108824,3.18220588 C16.9685294,1.72764706 14.0929412,0.339705882 11.1520588,0.187279412 L11.1520588,0.186176471 C11.1430147,0.185735294 11.1326471,0.185514706 11.1233824,0.185073529 C11.1205147,0.184852941 11.1174265,0.184411765 11.1145588,0.184411765 L11.1145588,0.184632353 C10.9577206,0.177573529 10.7744118,0.171397059 10.6222059,0.171397059 C3.62117647,0.171397059 0.366617647,4.84477941 0.366617647,10.6089706 C0.366617647,11.2078676 0.424411765,11.8010294 0.528308824,12.3860294 C0.904632353,12.2091176 1.28426471,12.0350735 1.66742647,11.8729412 C2.47477941,11.6446324 3.28279412,11.3942647 4.05375,11.1229412 C4.43911765,10.9733824 4.31779412,10.5443382 4.36830882,10.2522794 C4.17485294,9.36507353 3.77492647,8.60161765 3.44647059,7.77220588 C3.12573529,7.33632353 3.10367647,6.80073529 2.80963235,6.37169118 C2.78889706,6.22897059 2.56742647,6.03683824 2.76,5.95036765 L5.94066176,9.13036765 C6.28323529,9.56492647 6.69110294,9.83779412 7.08352941,10.2659559 L7.70470588,10.3440441 L11.4282353,10.4227941 C11.7022059,10.4647059 12.0006618,10.5033088 12.2797059,10.5375 L12.2799265,10.5377206 C12.2827941,10.5381618 12.2858824,10.5383824 12.2889706,10.5388235 C12.2936029,10.5394853 12.2984559,10.5399265 12.3030882,10.5405882 L12.3028676,10.5403676 C13.3361029,10.6643382 14.3417647,10.7283088 15.3703676,10.8675 C15.4140441,10.8884559 15.4279412,10.9603676 15.5066912,10.9327941 L14.6711029,12.3086029 C14.5186765,12.4605882 14.2506618,12.3236029 14.0005147,12.2810294 L12.0213971,12.2810294 C11.3775,12.9311029 10.9857353,13.6815441 10.3989706,14.3960294 C10.2697059,14.54625 10.0709559,14.6031618 9.92029412,14.7383824 C9.8625,14.7604412 9.82036765,14.7242647 9.80602941,14.6816912 L9.79169118,12.5744118 C9.72727941,12.3024265 9.52742647,11.9810294 9.23492647,11.9159559 L5.95477941,11.9519118 C5.03205882,12.0884559 4.18257353,12.4308088 3.40389706,12.8673529 C2.96779412,13.1452941 2.17676471,13.6109559 2.17676471,13.6109559 L1.14242647,14.2894853 C1.14242647,14.2894853 2.45161765,17.5217647 4.29397059,19.6938971 C4.51169118,19.2114706 4.71286765,18.7173529 4.96125,18.2609559 L5.55463235,16.81125 C5.51117647,16.5604412 5.60448529,16.2661765 5.34683824,16.0817647 C4.76073529,15.4109559 4.07735294,15.3330882 3.31985294,15.0831618 L3.31345588,15.0776471 L2.20963235,14.5733824 C2.20963235,14.5733824 2.27713235,14.29125 3.02977941,13.8686029 L3.555,13.7618382 L6.81132353,14.8030147 C7.67625,15.0388235 8.50477941,15.3743382 9.48485294,15.3467647 L9.48485294,15.3679412 C10.7351471,15.4755882 12.1782353,15.6311029 13.2068382,14.9245588 C13.4408824,14.7904412 13.6996324,14.6236765 13.9323529,14.4485294 L13.9323529,14.4489706 C13.9347794,14.4472059 13.9372059,14.445 13.9396324,14.4432353 C13.9429412,14.4405882 13.9466912,14.4381618 13.9502206,14.4355147 C13.95,14.4352941 13.95,14.4350735 13.95,14.4350735 C14.2978676,14.1692647 14.6197059,13.8577941 14.8429412,13.4960294 C15.8514706,11.65875 17.0152941,9.83073529 18.1010294,8.03713235 C18.1294853,8.03713235 18.2007353,8.04419118 18.18,7.99367647 L18.4014706,7.99367647 C18.3948529,8.00801471 18.3948529,8.02897059 18.4169118,8.03713235 L18.4590441,8.03713235 C18.5155147,8.25088235 18.3730147,8.40132353 18.3231618,8.53654412 C18.1654412,8.69426471 18.1517647,8.92941176 18.0218382,9.13036765 C17.8586029,9.62955882 17.5586029,10.1516912 17.3234559,10.6230882 C16.7861029,11.8665441 16.1576471,13.0603676 15.5927206,14.2894853 C15.5214706,14.6325 15.4076471,15.1180147 15.7656618,15.3679412 L16.9797794,15.3326471 C17.9009559,15.0597794 18.9999265,14.7097059 19.9074265,14.3874265 C20.7008824,14.6640441 21.1361029,14.8996324 21.6218382,15.21375 L21.5163971,15.3101471 C20.9236765,15.3533824 20.2453676,15.7535294 19.6947794,15.8955882 C19.6672059,16.0744853 19.6808824,16.2825 19.6742647,16.4673529 C19.6672059,16.96125 20.4882353,16.9899265 20.3311765,17.56125 C20.1527206,17.6329412 20.1088235,17.4399265 19.9738235,17.4035294 C19.1944853,17.0821324 18.5439706,16.5183088 17.6369118,16.5458824 C16.8379412,16.5959559 16.0308088,16.6972059 15.2033824,16.7406618 C14.8427206,16.7591912 14.4469853,16.7691176 14.0788235,16.7534559 C13.4920588,16.7958088 12.7921324,16.7181618 12.2285294,16.875 C12.1566176,16.9250735 12.1566176,17.0179412 12.1643382,17.1101471 C12.1283824,17.1041912 12.1283824,17.1467647 12.1283824,17.1756618 C11.8638971,17.8319118 11.9633824,18.6966176 12.1643382,19.3683088 L12.1643382,19.8555882 C12.1488971,19.8474265 12.1354412,19.8619853 12.1283824,19.8692647 C12.1923529,19.8908824 12.1488971,19.9766912 12.1643382,20.0265441 C12.1283824,20.0834559 12.0271324,20.0486029 11.9561029,20.055 C11.3069118,18.8327206 10.3286029,17.5321324 9.105,16.7534559 C8.56897059,16.5681618 7.84102941,16.5531618 7.31161765,16.7677941 C6.2625,17.6763971 5.52595588,18.8395588 4.92617647,19.9330147 C4.86529412,20.0227941 4.80022059,20.1110294 4.73360294,20.2005882 C10.1869853,26.3530147 18.8108824,29.7838235 18.8108824,29.7838235 C18.8108824,29.7838235 20.8581618,28.9169118 23.5694118,27.3511765 C23.5729412,27.3491912 23.57625,27.3472059 23.5797794,27.3452206 C23.5824265,27.3436765 23.5848529,27.3423529 23.5875,27.3408088 C27.4572794,25.1040441 32.6988971,21.4308088 35.4295588,16.7413235 C35.4295588,16.7413235 36.1625735,15.5730882 36.5744118,14.3124265 C36.5527941,14.2947794 36.1652206,13.9991912 36.13875,13.9857353 C35.4357353,13.6398529 35.1763235,13.5941912 35.1763235,13.5941912 C35.1763235,13.5941912 34.6164706,13.4002941 34.6171324,13.4002941 C34.4653676,13.4038235 34.2979412,13.3597059 34.2657353,13.2968382 C34.2505147,13.1422059 34.3683088,12.8157353 34.3206618,12.4605882 C34.2668382,12.0622059 34.3608088,11.7509559 34.3608088,11.7509559 C35.6920588,11.9272059 36.3888971,12.2748529 37.0669853,12.5369118 L37.0669853,12.5369118 Z" id="Fill-51" sketch:type="MSShapeGroup"></path>
            </g>
        </g>
    </g>
</svg>